<svg version="1" xmlns="http://www.w3.org/2000/svg" width="933.333" height="933.333" viewBox="0 0 700.000000 700.000000"><path d="M80.2 179.7c.3.7 111.6 110.7 155.2 153.4l14.8 14.5-85.2 84-85.1 83.9 57.7.3 57.6.2 54.5-53.7c30-29.6 68.4-67.5 85.4-84.3l30.9-30.5-85.6-84.3-85.6-84.2h-57.5c-31.6 0-57.3.3-57.1.7z"/><path d="M213.2 179.7c.3.7 111.6 110.7 155.2 153.4l14.8 14.5-85.2 84-85.1 83.9 57.7.3 57.6.2 54.5-53.7c30-29.6 68.4-67.5 85.4-84.3l30.9-30.5-85.6-84.3-85.6-84.2h-57.5c-31.6 0-57.3.3-57.1.7z"/><path d="M393.5 228.2c27.5 27 66 65 85.5 84.5l35.5 35.2-50 49.3c-27.5 27-65.7 64.8-85 84l-35 34.8h115.4l84.8-83.6c46.6-46 84.9-84 85.1-84.4.2-.4-38.1-38.6-85-84.9L459.5 179H343.6l49.9 49.2z"/></svg>